<svg width="512" height="512" viewBox="0 0 512 512" xmlns="http://www.w3.org/2000/svg">
  <defs>
    <radialGradient id="burstGrad3" cx="50%" cy="50%" r="50%">
      <stop offset="0%" stop-color="#FFCDD2"/>
      <stop offset="60%" stop-color="#E91E63"/>
      <stop offset="100%" stop-color="#AD1457"/>
    </radialGradient>
  </defs>
  <g transform="translate(256,256)" stroke-linecap="round">
    <circle r="10" fill="url(#burstGrad3)"/>
    <!-- petals -->
    <g stroke="#F06292" stroke-width="7" fill="none">
      <path d="M0,-160 q20,40 0,80 q-20,-40 0,-80"/>
      <path d="M160,0 q-40,20 -80,0 q40,-20 80,0"/>
      <path d="M0,160 q-20,-40 0,-80 q20,40 0,80"/>
      <path d="M-160,0 q40,-20 80,0 q-40,20 -80,0"/>
      <path d="M113,-113 q-10,35 -43,43 q10,-35 43,-43"/>
      <path d="M113,113 q-35,-10 -43,-43 q35,10 43,43"/>
      <path d="M-113,113 q10,-35 43,-43 q-10,35 -43,43"/>
      <path d="M-113,-113 q35,10 43,43 q-35,-10 -43,-43"/>
    </g>
  </g>
</svg>